<svg xmlns="http://www.w3.org/2000/svg" viewBox="0 0 50 50"><title>Asset 1</title><g id="Layer_2" data-name="Layer 2"><g id="Layer_1-2" data-name="Layer 1"><path d="M44.64,0H5.36A5.36,5.36,0,0,0,0,5.36V44.64A5.36,5.36,0,0,0,5.36,50H44.64A5.36,5.36,0,0,0,50,44.64V5.36A5.36,5.36,0,0,0,44.64,0ZM31,42.82c-.94.17-1.28-.41-1.28-.89s0-3.68,0-6.17a4.36,4.36,0,0,0-1.26-3.43c4.13-.45,8.48-1,8.48-8.16A5.74,5.74,0,0,0,35,19.82a7,7,0,0,0-.19-5c-1.55-.48-5.1,2-5.1,2a17.44,17.44,0,0,0-9.29,0s-3.55-2.48-5.1-2a7,7,0,0,0-.19,5,5.62,5.62,0,0,0-1.74,4.35c0,7.1,4.17,7.71,8.3,8.16a4.05,4.05,0,0,0-1.19,2.49,3.91,3.91,0,0,1-5.39-1.55,3.89,3.89,0,0,0-2.84-1.91c-1.81,0-.13,1.14-.13,1.14,1.21.56,2.06,2.7,2.06,2.7,1.08,3.32,6.26,2.2,6.26,2.2,0,1.55,0,4.07,0,4.53s-.33,1.06-1.28.89A18.5,18.5,0,0,1,6.67,25.16a17.72,17.72,0,0,1,18.08-18c10.25,0,18.55,7.78,18.55,18A18.34,18.34,0,0,1,31,42.82ZM20,36c-.21,0-.41,0-.44-.19s.13-.31.34-.35.41.06.43.21S20.22,36,20,36Zm-1.06-.1c0,.15-.17.27-.39.27s-.41-.1-.41-.27.16-.26.39-.26S18.94,35.74,18.94,35.9Zm-1.53-.12c0,.15-.27.21-.46.15s-.35-.22-.31-.36.27-.21.46-.17.37.24.31.38ZM16,35.18c-.1.12-.31.1-.48-.07s-.21-.36-.1-.46.31-.1.48.07S16.14,35.09,16,35.18Zm-1-1c-.1.07-.29,0-.41-.16s-.12-.36,0-.44.31,0,.41.15A.31.31,0,0,1,15,34.16Zm-.72-1.08c-.1.1-.27,0-.39-.07s-.15-.31-.05-.39.27,0,.39.07S14.4,33,14.3,33.08Zm-.75-.83a.21.21,0,0,1-.31,0c-.15-.07-.22-.19-.17-.29a.26.26,0,0,1,.31,0C13.53,32,13.59,32.17,13.55,32.25Z"/></g></g></svg>