<svg xmlns="http://www.w3.org/2000/svg" viewBox="0 0 22 22"><title>Asset 1</title><g id="Layer_2" data-name="Layer 2"><g id="Layer_1-2" data-name="Layer 1"><g id="Layer_1-2-2" data-name="Layer 1-2"><path d="M19.64,0H2.36A2.36,2.36,0,0,0,0,2.36H0V19.64A2.36,2.36,0,0,0,2.36,22H19.64A2.36,2.36,0,0,0,22,19.64h0V2.36A2.36,2.36,0,0,0,19.64,0Zm-6,18.84c-.41.08-.56-.18-.56-.39V15.73a1.9,1.9,0,0,0-.56-1.5c1.82-.2,3.73-.44,3.73-3.6a2.51,2.51,0,0,0-.85-1.91,3.15,3.15,0,0,0-.08-2.2c-.69-.21-2.25.88-2.25.88A7.67,7.67,0,0,0,9,7.4S7.42,6.31,6.74,6.52a3,3,0,0,0-.08,2.2,2.51,2.51,0,0,0-.77,1.91c0,3.13,1.84,3.4,3.65,3.6A1.81,1.81,0,0,0,9,15.32a1.72,1.72,0,0,1-2.35-.64l0,0A1.72,1.72,0,0,0,5.4,13.8c-.8,0-.06.5-.06.5.53.25.91,1.19.91,1.19.47,1.46,2.75,1,2.75,1v2c0,.2-.14.47-.56.39a8.14,8.14,0,0,1-5.51-7.77,7.8,7.8,0,0,1,7.68-7.92h.28a8,8,0,0,1,8.16,7.92A8.07,8.07,0,0,1,13.64,18.84Zm-4.84-3c-.09,0-.18,0-.19-.08s.05-.14.15-.16a.16.16,0,0,1,.19.09A.15.15,0,0,1,8.8,15.84Zm-.47,0c0,.06-.07.11-.17.11S8,15.87,8,15.8s.07-.12.17-.12S8.33,15.73,8.33,15.8Zm-.67-.06c0,.07-.12.1-.2.07s-.16-.1-.14-.16.12-.09.2-.07S7.69,15.68,7.66,15.74ZM7,15.48s-.14,0-.21,0-.09-.16,0-.2.14-.05.22,0S7.1,15.44,7,15.48ZM6.6,15s-.13,0-.18-.07,0-.16,0-.19.14,0,.18.06a.14.14,0,0,1,0,.19Zm-.32-.48s-.12,0-.17,0a.12.12,0,0,1,0-.17s.12,0,.17,0,.08.13,0,.17ZM6,14.2a.09.09,0,0,1-.13,0h0c-.07,0-.1-.08-.08-.13a.12.12,0,0,1,.14,0,.09.09,0,0,1,.08.12Z"/></g></g></g></svg>