<svg xmlns="http://www.w3.org/2000/svg" viewBox="0 0 22 22"><title>Asset 1</title><g id="Layer_2" data-name="Layer 2"><g id="Layer_1-2" data-name="Layer 1"><path d="M20.43,0H1.57A1.58,1.58,0,0,0,0,1.59V20.41A1.58,1.58,0,0,0,1.57,22H20.43A1.58,1.58,0,0,0,22,20.41V1.59A1.58,1.58,0,0,0,20.43,0ZM6.65,18.86H3.39V8.36H6.65v10.5ZM5,6.92A1.89,1.89,0,1,1,6.91,5,1.89,1.89,0,0,1,5,6.92ZM18.87,18.86H15.61V13.75c0-1.22,0-2.78-1.69-2.78s-2,1.32-2,2.69v5.2H8.7V8.36h3.13V9.79h0A3.44,3.44,0,0,1,15,8.1c3.3,0,3.91,2.17,3.91,5Z"/></g></g></svg>