<svg xmlns="http://www.w3.org/2000/svg" viewBox="0 0 22 22"><defs><style>.cls-1{fill:#f5f5f5;}</style></defs><title>Asset 1</title><g id="Layer_2" data-name="Layer 2"><g id="Layer_1-2" data-name="Layer 1"><g id="Layer_1-2-2" data-name="Layer 1-2"><path class="cls-1" d="M20.43,0H1.57A1.59,1.59,0,0,0,0,1.58V20.42A1.59,1.59,0,0,0,1.57,22H20.43A1.58,1.58,0,0,0,22,20.42V1.58A1.58,1.58,0,0,0,20.43,0ZM6.65,18.86H3.39V8.36H6.65v10.5ZM5,6.93A1.9,1.9,0,0,1,5,3.14,1.89,1.89,0,0,1,6.91,5h0A1.9,1.9,0,0,1,5,6.93ZM18.87,18.86H15.61V13.75c0-1.22,0-2.79-1.69-2.79s-2,1.32-2,2.7v5.2H8.7V8.36h3.13V9.79h.05A3.41,3.41,0,0,1,15,8.1c3.3,0,3.91,2.2,3.91,5Z"/></g></g></g></svg>