<svg xmlns="http://www.w3.org/2000/svg" viewBox="0 0 50 50"><defs><style>.cls-1{fill:#f5f5f5;}</style></defs><title>Asset 2</title><g id="Layer_2" data-name="Layer 2"><g id="Layer_1-2" data-name="Layer 1"><path class="cls-1" d="M46.43,0H3.56A3.59,3.59,0,0,0,0,3.6V46.4A3.59,3.59,0,0,0,3.56,50H46.43A3.6,3.6,0,0,0,50,46.4V3.6A3.6,3.6,0,0,0,46.43,0ZM15.11,42.86H7.7V19h7.42V42.86Zm-3.7-27.12a4.3,4.3,0,1,1,4.29-4.3A4.3,4.3,0,0,1,11.41,15.74ZM42.89,42.86H35.48V31.25c0-2.77-.06-6.33-3.85-6.33s-4.45,3-4.45,6.13V42.86H19.77V19h7.11v3.25H27a7.8,7.8,0,0,1,7-3.85c7.5,0,8.89,5,8.89,11.38Z"/></g></g></svg>