<svg xmlns="http://www.w3.org/2000/svg" viewBox="0 0 399.82 448.03"><defs><style>.cls-1{fill:#f5f5f5;}</style></defs><title>Asset 1</title><g id="Layer_2" data-name="Layer 2"><g id="Layer_1-2" data-name="Layer 1"><path class="cls-1" d="M389.6,347.93a11.25,11.25,0,0,0-2.05.19,178,178,0,0,1-33.32,3.17c-94.81,0-174.1-77.14-174.1-175.5a175.42,175.42,0,0,1,88.73-152.6,10.5,10.5,0,0,0-3.28-19.44A269.83,269.83,0,0,0,224.68,0C100.3-.87,0,100.23,0,224c0,123.6,100.1,224,223.8,224A223.16,223.16,0,0,0,397.6,365.1C403.3,357.13,397.1,347.93,389.6,347.93ZM223.8,400C126.9,400,48,321,48,224c0-76.32,48.77-141.4,116.7-165.8a223.76,223.76,0,0,0-33.5,117.6c0,99.44,65.13,183.9,154.9,212.8A174.25,174.25,0,0,1,223.8,400Z"/></g></g></svg>